{
  "accessors": [
    {
      "bufferView": 2,
      "componentType": 5126,
      "count": 240,
      "max": [
        2.5,
        2.5,
        0.30000001192092896
      ],
      "min": [
        -2.4920003414154053,
        -2.491999864578247,
        -0.30000001192092896
      ],
      "type": "VEC3"
    },
    {
      "bufferView": 2,
      "byteOffset": 2880,
      "componentType": 5126,
      "count": 240,
      "max": [
        1.0,
        1.0,
        1.0
      ],
      "min": [
        -1.0,
        -1.0,
        -1.0
      ],
      "type": "VEC3"
    },
    {
      "bufferView": 3,
      "componentType": 5126,
      "count": 240,
      "max": [
        1.0,
        1.0,
        1.0372404268821356e-08,
        1.0
      ],
      "min": [
        -1.0,
        -1.0,
        -1.0,
        1.0
      ],
      "type": "VEC4"
    },
    {
      "bufferView": 1,
      "componentType": 5126,
      "count": 240,
      "max": [
        0.988921582698822,
        0.8639217019081116
      ],
      "min": [
        0.01107836328446865,
        0.011078370735049248
      ],
      "type": "VEC2"
    },
    {
      "bufferView": 1,
      "byteOffset": 1920,
      "componentType": 5126,
      "count": 240,
      "max": [
        0.988921582698822,
        0.8639217019081116
      ],
      "min": [
        0.01107836328446865,
        0.011078370735049248
      ],
      "type": "VEC2"
    },
    {
      "bufferView": 1,
      "byteOffset": 3840,
      "componentType": 5126,
      "count": 240,
      "max": [
        0.988921582698822,
        0.8639217019081116
      ],
      "min": [
        0.01107836328446865,
        0.011078370735049248
      ],
      "type": "VEC2"
    },
    {
      "bufferView": 0,
      "componentType": 5125,
      "count": 372,
      "type": "SCALAR"
    },
    {
      "bufferView": 2,
      "byteOffset": 5760,
      "componentType": 5126,
      "count": 96,
      "max": [
        2.492635726928711,
        2.4900004863739014,
        0.5
      ],
      "min": [
        -2.4993650913238525,
        -2.4900004863739014,
        0.29999998211860657
      ],
      "type": "VEC3"
    },
    {
      "bufferView": 2,
      "byteOffset": 6912,
      "componentType": 5126,
      "count": 96,
      "max": [
        1.0,
        1.0,
        1.0
      ],
      "min": [
        -1.0,
        -1.0,
        -1.0
      ],
      "type": "VEC3"
    },
    {
      "bufferView": 3,
      "byteOffset": 3840,
      "componentType": 5126,
      "count": 96,
      "max": [
        1.0,
        0.7071065306663513,
        8.108343330093248e-09,
        1.0
      ],
      "min": [
        -1.0,
        -5.137378138897475e-06,
        -1.0,
        1.0
      ],
      "type": "VEC4"
    },
    {
      "bufferView": 1,
      "byteOffset": 5760,
      "componentType": 5126,
      "count": 96,
      "max": [
        0.9940899610519409,
        0.8962509632110596
      ],
      "min": [
        0.005909992381930351,
        0.005909936968237162
      ],
      "type": "VEC2"
    },
    {
      "bufferView": 1,
      "byteOffset": 6528,
      "componentType": 5126,
      "count": 96,
      "max": [
        0.9940899610519409,
        0.8962509632110596
      ],
      "min": [
        0.005909992381930351,
        0.005909936968237162
      ],
      "type": "VEC2"
    },
    {
      "bufferView": 1,
      "byteOffset": 7296,
      "componentType": 5126,
      "count": 96,
      "max": [
        0.9940899610519409,
        0.8962509632110596
      ],
      "min": [
        0.005909992381930351,
        0.005909936968237162
      ],
      "type": "VEC2"
    },
    {
      "bufferView": 0,
      "byteOffset": 1488,
      "componentType": 5125,
      "count": 156,
      "type": "SCALAR"
    },
    {
      "bufferView": 2,
      "byteOffset": 8064,
      "componentType": 5126,
      "count": 96,
      "max": [
        2.486636161804199,
        2.4960005283355713,
        -0.3008424639701843
      ],
      "min": [
        -2.4933652877807617,
        -2.4960007667541504,
        -0.5008425116539001
      ],
      "type": "VEC3"
    },
    {
      "bufferView": 2,
      "byteOffset": 9216,
      "componentType": 5126,
      "count": 96,
      "max": [
        1.0,
        1.0,
        1.0
      ],
      "min": [
        -1.0,
        -1.0,
        -1.0
      ],
      "type": "VEC3"
    },
    {
      "bufferView": 3,
      "byteOffset": 5376,
      "componentType": 5126,
      "count": 96,
      "max": [
        3.80422466150776e-06,
        1.6745243556215428e-06,
        5.3305259060925915e-17,
        1.0
      ],
      "min": [
        -1.6745258335504332e-06,
        -1.0,
        -1.0,
        1.0
      ],
      "type": "VEC4"
    },
    {
      "bufferView": 1,
      "byteOffset": 8064,
      "componentType": 5126,
      "count": 96,
      "max": [
        0.9939284920692444,
        0.9461573958396912
      ],
      "min": [
        0.006071594078093767,
        0.0060715824365615845
      ],
      "type": "VEC2"
    },
    {
      "bufferView": 1,
      "byteOffset": 8832,
      "componentType": 5126,
      "count": 96,
      "max": [
        0.9939284920692444,
        0.9461573958396912
      ],
      "min": [
        0.006071594078093767,
        0.0060715824365615845
      ],
      "type": "VEC2"
    },
    {
      "bufferView": 1,
      "byteOffset": 9600,
      "componentType": 5126,
      "count": 96,
      "max": [
        0.9939284920692444,
        0.9461573958396912
      ],
      "min": [
        0.006071594078093767,
        0.0060715824365615845
      ],
      "type": "VEC2"
    },
    {
      "bufferView": 0,
      "byteOffset": 2112,
      "componentType": 5125,
      "count": 156,
      "type": "SCALAR"
    },
    {
      "bufferView": 2,
      "byteOffset": 10368,
      "componentType": 5126,
      "count": 192,
      "max": [
        2.4921042919158936,
        2.4843332767486572,
        0.5757583379745483
      ],
      "min": [
        -2.49210262298584,
        -2.4896669387817383,
        0.49687230587005615
      ],
      "type": "VEC3"
    },
    {
      "bufferView": 2,
      "byteOffset": 12672,
      "componentType": 5126,
      "count": 192,
      "max": [
        1.0,
        1.0,
        1.0
      ],
      "min": [
        -1.0,
        -1.0,
        -1.0
      ],
      "type": "VEC3"
    },
    {
      "bufferView": 3,
      "byteOffset": 6912,
      "componentType": 5126,
      "count": 192,
      "max": [
        1.0895381592490594e-06,
        1.0,
        0.0,
        1.0
      ],
      "min": [
        -0.7071076035499573,
        -0.7071060538291931,
        -1.0,
        1.0
      ],
      "type": "VEC4"
    },
    {
      "bufferView": 1,
      "byteOffset": 10368,
      "componentType": 5126,
      "count": 192,
      "max": [
        0.6599694490432739,
        0.9935210347175598
      ],
      "min": [
        0.006478945259004831,
        0.006478908937424421
      ],
      "type": "VEC2"
    },
    {
      "bufferView": 1,
      "byteOffset": 11904,
      "componentType": 5126,
      "count": 192,
      "max": [
        0.6599694490432739,
        0.9935210347175598
      ],
      "min": [
        0.006478945259004831,
        0.006478908937424421
      ],
      "type": "VEC2"
    },
    {
      "bufferView": 1,
      "byteOffset": 13440,
      "componentType": 5126,
      "count": 192,
      "max": [
        0.6599694490432739,
        0.9935210347175598
      ],
      "min": [
        0.006478945259004831,
        0.006478908937424421
      ],
      "type": "VEC2"
    },
    {
      "bufferView": 0,
      "byteOffset": 2736,
      "componentType": 5125,
      "count": 300,
      "type": "SCALAR"
    }
  ],
  "asset": {
    "extras": {
      "author": "plank_de (https://sketchfab.com/plank199)",
      "license": "CC-BY-4.0 (http://creativecommons.org/licenses/by/4.0/)",
      "source": "https://sketchfab.com/3d-models/realistic-wooden-pallet-low-poly-83723a87b7d44bd296a3d7a750b2e781",
      "title": "Realistic Wooden Pallet (Low-Poly)"
    },
    "generator": "Sketchfab-17.15.0",
    "version": "2.0"
  },
  "bufferViews": [
    {
      "buffer": 0,
      "byteLength": 3936,
      "name": "floatBufferViews",
      "target": 34963
    },
    {
      "buffer": 0,
      "byteLength": 14976,
      "byteOffset": 3936,
      "byteStride": 8,
      "name": "floatBufferViews",
      "target": 34962
    },
    {
      "buffer": 0,
      "byteLength": 14976,
      "byteOffset": 18912,
      "byteStride": 12,
      "name": "floatBufferViews",
      "target": 34962
    },
    {
      "buffer": 0,
      "byteLength": 9984,
      "byteOffset": 33888,
      "byteStride": 16,
      "name": "floatBufferViews",
      "target": 34962
    }
  ],
  "buffers": [
    {
      "byteLength": 43872,
      "uri": "scene.bin"
    }
  ],
  "images": [
    {
      "uri": "textures/cubes_baseColor.png"
    },
    {
      "uri": "textures/cubes_metallicRoughness.png"
    },
    {
      "uri": "textures/cubes_normal.png"
    },
    {
      "uri": "textures/pre-top_baseColor.png"
    },
    {
      "uri": "textures/pre-top_metallicRoughness.png"
    },
    {
      "uri": "textures/pre-top_normal.png"
    },
    {
      "uri": "textures/material_baseColor.png"
    },
    {
      "uri": "textures/material_metallicRoughness.png"
    },
    {
      "uri": "textures/material_normal.png"
    },
    {
      "uri": "textures/top-top_baseColor.png"
    },
    {
      "uri": "textures/top-top_metallicRoughness.png"
    },
    {
      "uri": "textures/top-top_normal.png"
    }
  ],
  "materials": [
    {
      "doubleSided": true,
      "name": "cubes",
      "normalTexture": {
        "index": 2
      },
      "pbrMetallicRoughness": {
        "baseColorTexture": {
          "index": 0
        },
        "metallicRoughnessTexture": {
          "index": 1
        }
      }
    },
    {
      "doubleSided": true,
      "name": "pre-top",
      "normalTexture": {
        "index": 5
      },
      "pbrMetallicRoughness": {
        "baseColorTexture": {
          "index": 3
        },
        "metallicRoughnessTexture": {
          "index": 4
        }
      }
    },
    {
      "doubleSided": true,
      "name": "material",
      "normalTexture": {
        "index": 8
      },
      "pbrMetallicRoughness": {
        "baseColorTexture": {
          "index": 6
        },
        "metallicRoughnessTexture": {
          "index": 7
        }
      }
    },
    {
      "doubleSided": true,
      "name": "top-top",
      "normalTexture": {
        "index": 11
      },
      "pbrMetallicRoughness": {
        "baseColorTexture": {
          "index": 9
        },
        "metallicRoughnessTexture": {
          "index": 10
        }
      }
    }
  ],
  "meshes": [
    {
      "name": "pallet_cubes_0",
      "primitives": [
        {
          "attributes": {
            "NORMAL": 1,
            "POSITION": 0,
            "TANGENT": 2,
            "TEXCOORD_0": 3,
            "TEXCOORD_1": 4,
            "TEXCOORD_2": 5
          },
          "indices": 6,
          "material": 0,
          "mode": 4
        }
      ]
    },
    {
      "name": "pallet_pre-top_0",
      "primitives": [
        {
          "attributes": {
            "NORMAL": 8,
            "POSITION": 7,
            "TANGENT": 9,
            "TEXCOORD_0": 10,
            "TEXCOORD_1": 11,
            "TEXCOORD_2": 12
          },
          "indices": 13,
          "material": 1,
          "mode": 4
        }
      ]
    },
    {
      "name": "pallet_bot_0",
      "primitives": [
        {
          "attributes": {
            "NORMAL": 15,
            "POSITION": 14,
            "TANGENT": 16,
            "TEXCOORD_0": 17,
            "TEXCOORD_1": 18,
            "TEXCOORD_2": 19
          },
          "indices": 20,
          "material": 2,
          "mode": 4
        }
      ]
    },
    {
      "name": "pallet_top-top_0",
      "primitives": [
        {
          "attributes": {
            "NORMAL": 22,
            "POSITION": 21,
            "TANGENT": 23,
            "TEXCOORD_0": 24,
            "TEXCOORD_1": 25,
            "TEXCOORD_2": 26
          },
          "indices": 27,
          "material": 3,
          "mode": 4
        }
      ]
    }
  ],
  "nodes": [
    {
      "children": [
        1
      ],
      "matrix": [
        1.0,
        0.0,
        0.0,
        0.0,
        0.0,
        2.220446049250313e-16,
        -1.0,
        0.0,
        0.0,
        1.0,
        2.220446049250313e-16,
        0.0,
        0.0,
        0.0,
        0.0,
        1.0
      ],
      "name": "Sketchfab_model"
    },
    {
      "children": [
        2
      ],
      "matrix": [
        0.009999999776482582,
        0.0,
        0.0,
        0.0,
        0.0,
        0.0,
        0.009999999776482582,
        0.0,
        0.0,
        -0.009999999776482582,
        0.0,
        0.0,
        0.0,
        0.0,
        0.0,
        1.0
      ],
      "name": "renda.fbx"
    },
    {
      "children": [
        3
      ],
      "name": "RootNode"
    },
    {
      "children": [
        4,
        5,
        6,
        7
      ],
      "matrix": [
        100.0,
        0.0,
        0.0,
        0.0,
        0.0,
        -1.629206793918314e-05,
        -99.99999999999868,
        0.0,
        0.0,
        99.99999999999868,
        -1.629206793918314e-05,
        0.0,
        0.0,
        0.0,
        0.0,
        1.0
      ],
      "name": "pallet"
    },
    {
      "mesh": 0,
      "name": "pallet_cubes_0"
    },
    {
      "mesh": 1,
      "name": "pallet_pre-top_0"
    },
    {
      "mesh": 2,
      "name": "pallet_bot_0"
    },
    {
      "mesh": 3,
      "name": "pallet_top-top_0"
    }
  ],
  "samplers": [
    {
      "magFilter": 9729,
      "minFilter": 9987,
      "wrapS": 10497,
      "wrapT": 10497
    }
  ],
  "scene": 0,
  "scenes": [
    {
      "name": "Sketchfab_Scene",
      "nodes": [
        0
      ]
    }
  ],
  "textures": [
    {
      "sampler": 0,
      "source": 0
    },
    {
      "sampler": 0,
      "source": 1
    },
    {
      "sampler": 0,
      "source": 2
    },
    {
      "sampler": 0,
      "source": 3
    },
    {
      "sampler": 0,
      "source": 4
    },
    {
      "sampler": 0,
      "source": 5
    },
    {
      "sampler": 0,
      "source": 6
    },
    {
      "sampler": 0,
      "source": 7
    },
    {
      "sampler": 0,
      "source": 8
    },
    {
      "sampler": 0,
      "source": 9
    },
    {
      "sampler": 0,
      "source": 10
    },
    {
      "sampler": 0,
      "source": 11
    }
  ]
}
